<svg width="723" height="48" viewBox="0 0 3856 256" fill="none" xmlns="http://www.w3.org/2000/svg"
  xmlns:xlink="http://www.w3.org/1999/xlink" version="1.1">

  <g transform="translate(0, 0)">
    <svg xmlns="http://www.w3.org/2000/svg" width="256" height="256" fill="none" viewBox="0 0 256 256">
      <rect width="256" height="256" fill="#E14E1D" rx="60" />
      <path fill="#fff"
        d="M48 38L56.6098 134.593H167.32L163.605 176.023L127.959 185.661L92.38 176.037L90.0012 149.435H57.9389L62.5236 200.716L127.951 218.888L193.461 200.716L202.244 102.655H85.8241L82.901 69.9448H205.041H205.139L208 38H48Z" />
      <path fill="#EBEBEB" d="M128 38H48L56.6098 134.593H128V102.655H85.8241L82.901 69.9448H128V38Z" />
      <path fill="#EBEBEB"
        d="M128 185.647L127.959 185.661L92.38 176.037L90.0012 149.435H57.9388L62.5236 200.716L127.951 218.888L128 218.874V185.647Z" />
    </svg>
  </g>

  <g transform="translate(300, 0)">
    <svg xmlns="http://www.w3.org/2000/svg" width="256" height="256" fill="none" viewBox="0 0 256 256">
      <rect width="256" height="256" fill="#242938" rx="60" />
      <path stroke="#fff" stroke-width="10"
        d="M217 69H39C33.4772 69 29 73.4772 29 79V177C29 182.523 33.4772 187 39 187H217C222.523 187 227 182.523 227 177V79C227 73.4772 222.523 69 217 69Z" />
      <path fill="#fff"
        d="M54 162V94H74L94 119L114 94H134V162H114V123L94 148L74 123V162H54ZM179 162L149 129H169V94H189V129H209L179 162Z" />
    </svg>
  </g>

  <g transform="translate(600, 0)">
    <svg width="256" height="256" viewBox="0 0 256 256" fill="none" xmlns="http://www.w3.org/2000/svg">
      <rect width="256" height="256" rx="60" fill="#0277BD" />
      <path d="M53.7527 102.651L56.6155 134.593H128.096V102.651H53.7527Z" fill="#EBEBEB" />
      <path d="M128.095 38H127.985H48L50.9036 69.9423H128.095V38Z" fill="#EBEBEB" />
      <path
        d="M128.095 218.841V185.608L127.955 185.645L92.3813 176.04L90.1072 150.564H72.821H58.0425L62.5175 200.718L127.948 218.882L128.095 218.841Z"
        fill="#EBEBEB" />
      <path
        d="M167.318 134.593L163.61 176.019L127.985 185.635V218.866L193.468 200.718L193.948 195.321L201.454 111.229L202.233 102.651L208 38H127.985V69.9423H172.994L170.088 102.651H127.985V134.593H167.318Z"
        fill="white" />
    </svg>

  </g>

  <g transform="translate(900, 0)">
    <svg xmlns="http://www.w3.org/2000/svg" width="256" height="256" fill="none" viewBox="0 0 256 256">
      <rect width="256" height="256" fill="#CD6799" rx="60" />
      <g clip-path="url(#clip0_137_201)">
        <path fill="#fff"
          d="M200.107 139.163C193.133 139.199 187.073 140.879 181.998 143.361C180.136 139.674 178.274 136.388 177.945 133.978C177.58 131.167 177.142 129.451 177.58 126.092C178.018 122.733 179.99 117.951 179.953 117.586C179.917 117.22 179.515 115.505 175.499 115.468C171.483 115.432 168.015 116.235 167.613 117.294C167.211 118.352 166.445 120.762 165.934 123.245C165.24 126.896 157.901 139.93 153.703 146.757C152.352 144.092 151.184 141.755 150.928 139.893C150.563 137.082 150.125 135.366 150.563 132.007C151.001 128.648 152.973 123.865 152.936 123.5C152.9 123.135 152.498 121.419 148.482 121.383C144.466 121.346 140.997 122.149 140.596 123.208C140.194 124.267 139.756 126.75 138.916 129.159C138.077 131.569 128.329 153.329 125.773 158.951C124.459 161.835 123.327 164.135 122.524 165.705C122.524 165.705 122.487 165.815 122.378 165.997C121.684 167.348 121.282 168.078 121.282 168.078C121.282 168.078 121.282 168.078 121.282 168.115C120.735 169.101 120.15 170.013 119.858 170.013C119.639 170.013 119.238 167.385 119.931 163.807C121.392 156.249 124.86 144.493 124.824 144.092C124.824 143.873 125.481 141.828 122.56 140.769C119.712 139.71 118.69 141.463 118.434 141.463C118.179 141.463 117.996 142.084 117.996 142.084C117.996 142.084 121.173 128.867 111.936 128.867C106.167 128.867 98.2081 135.183 94.2651 140.879C91.7824 142.23 86.4885 145.114 80.8295 148.217C78.6755 149.422 76.4484 150.627 74.3673 151.759C74.2213 151.613 74.0753 151.43 73.9292 151.284C62.7573 139.345 42.0928 130.912 42.969 114.884C43.2976 109.042 45.3056 93.7083 82.655 75.0883C113.396 59.9368 137.858 64.1354 142.093 73.4454C148.153 86.7349 128.986 111.415 97.2224 114.993C85.1012 116.344 78.7485 111.671 77.1421 109.919C75.4626 108.093 75.2071 107.984 74.5864 108.349C73.5641 108.896 74.2213 110.539 74.5864 111.488C75.5356 113.971 79.4422 118.352 86.0504 120.506C91.892 122.405 106.094 123.464 123.29 116.819C142.531 109.371 157.573 88.6699 153.155 71.3278C148.738 53.7302 119.53 47.9251 91.892 57.7462C75.4626 63.5878 57.6459 72.7882 44.831 84.7634C29.6065 99.0022 27.1968 111.379 28.1826 116.563C31.724 134.964 57.0983 146.939 67.2479 155.811C66.7368 156.103 66.2622 156.359 65.8606 156.578C60.7857 159.097 41.4356 169.21 36.6163 179.908C31.1399 192.029 37.4926 200.718 41.6912 201.886C54.7251 205.501 68.1242 199.002 75.3166 188.268C82.509 177.534 81.6328 163.588 78.3104 157.199C78.2739 157.126 78.2374 157.053 78.1643 156.98C79.4787 156.213 80.8295 155.41 82.1439 154.643C84.7361 153.11 87.2917 151.686 89.4823 150.517C88.241 153.913 87.3283 157.965 86.8901 163.807C86.3425 170.671 89.1537 179.579 92.8412 183.084C94.4842 184.617 96.4192 184.654 97.6605 184.654C101.969 184.654 103.904 181.076 106.058 176.841C108.686 171.656 111.06 165.632 111.06 165.632C111.06 165.632 108.102 181.916 116.134 181.916C119.055 181.916 122.012 178.119 123.327 176.184C123.327 176.22 123.327 176.22 123.327 176.22C123.327 176.22 123.4 176.111 123.546 175.855C123.838 175.38 124.02 175.088 124.02 175.088C124.02 175.088 124.02 175.052 124.02 175.015C125.189 172.971 127.817 168.334 131.724 160.63C136.762 150.7 141.618 138.287 141.618 138.287C141.618 138.287 142.056 141.317 143.553 146.355C144.429 149.313 146.255 152.562 147.715 155.702C146.547 157.345 145.817 158.257 145.817 158.257C145.817 158.257 145.817 158.257 145.853 158.294C144.904 159.535 143.882 160.886 142.75 162.2C138.77 166.947 134.024 172.387 133.367 173.957C132.6 175.819 132.783 177.169 134.243 178.265C135.302 179.068 137.2 179.177 139.135 179.068C142.713 178.812 145.233 177.936 146.474 177.388C148.409 176.695 150.673 175.636 152.79 174.066C156.697 171.182 159.07 167.056 158.851 161.616C158.741 158.622 157.755 155.629 156.551 152.817C156.916 152.306 157.244 151.795 157.609 151.284C163.78 142.266 168.562 132.372 168.562 132.372C168.562 132.372 169 135.402 170.497 140.441C171.227 142.996 172.724 145.771 174.039 148.473C168.234 153.183 164.656 158.659 163.378 162.237C161.078 168.882 162.867 171.875 166.262 172.569C167.796 172.898 169.986 172.168 171.593 171.474C173.637 170.817 176.047 169.685 178.347 168.005C182.253 165.121 186.014 161.105 185.795 155.665C185.685 153.183 185.028 150.736 184.115 148.363C189.044 146.319 195.397 145.187 203.502 146.136C220.881 148.181 224.313 159.024 223.655 163.588C222.998 168.151 219.347 170.634 218.142 171.401C216.938 172.168 216.536 172.423 216.646 172.971C216.792 173.774 217.376 173.737 218.398 173.591C219.822 173.336 227.525 169.904 227.854 161.507C228.402 150.773 218.179 139.053 200.107 139.163ZM66.0431 184.362C60.2746 190.641 52.2425 193.015 48.7741 191.007C45.0501 188.852 46.5105 179.579 53.5933 172.934C57.9015 168.882 63.4509 165.121 67.1384 162.821C67.9781 162.31 69.2195 161.58 70.7164 160.667C70.9719 160.521 71.118 160.448 71.118 160.448C71.41 160.265 71.7021 160.083 71.9942 159.9C74.5864 169.393 72.1037 177.754 66.0431 184.362ZM108.029 155.811C106.021 160.704 101.823 173.226 99.2669 172.533C97.0763 171.948 95.7255 162.456 98.8288 153.073C100.399 148.363 103.721 142.741 105.656 140.55C108.796 137.045 112.264 135.877 113.104 137.301C114.163 139.163 109.271 152.744 108.029 155.811ZM142.677 172.387C141.837 172.825 141.034 173.117 140.669 172.898C140.413 172.752 141.034 172.168 141.034 172.168C141.034 172.168 145.379 167.494 147.095 165.377C148.08 164.135 149.249 162.675 150.49 161.032C150.49 161.178 150.49 161.361 150.49 161.507C150.49 167.093 145.087 170.853 142.677 172.387ZM169.402 166.289C168.781 165.851 168.891 164.391 170.972 159.827C171.775 158.038 173.674 155.045 176.923 152.16C177.288 153.329 177.544 154.46 177.507 155.519C177.471 162.566 172.432 165.194 169.402 166.289Z" />
      </g>
      <defs>
        <clipPath id="clip0_137_201">
          <rect width="200" height="149.909" fill="#fff" transform="translate(28 53)" />
        </clipPath>
      </defs>
    </svg>
  </g>

  <g transform="translate(1200, 0)">
    <svg xmlns="http://www.w3.org/2000/svg" width="256" height="256" fill="none" viewBox="0 0 256 256">
      <rect width="256" height="256" fill="#242938" rx="60" />
      <path fill="url(#paint0_linear_2_119)" fill-rule="evenodd"
        d="M83 110C88.9991 86.0009 104.001 74 128 74C164 74 168.5 101 186.5 105.5C198.501 108.501 209 104.001 218 92C212.001 115.999 196.999 128 173 128C137 128 132.5 101 114.5 96.5C102.499 93.4991 92 97.9991 83 110ZM38 164C43.9991 140.001 59.0009 128 83 128C119 128 123.5 155 141.5 159.5C153.501 162.501 164 158.001 173 146C167.001 169.999 151.999 182 128 182C92 182 87.5 155 69.5 150.5C57.4991 147.499 47 151.999 38 164Z"
        clip-rule="evenodd" />
      <defs>
        <linearGradient id="paint0_linear_2_119" x1="86.5" x2="163.5" y1="74" y2="185.5" gradientUnits="userSpaceOnUse">
          <stop stop-color="#32B1C1" />
          <stop offset="1" stop-color="#14C6B7" />
        </linearGradient>
      </defs>
    </svg>
  </g>

  <g transform="translate(1500, 0)">
    <svg xmlns="http://www.w3.org/2000/svg" width="256" height="256" fill="none" viewBox="0 0 256 256">
      <rect width="256" height="256" fill="url(#paint0_linear_158_100)" rx="60" />
      <g filter="url(#filter0_d_158_100)">
        <path fill="url(#paint1_linear_158_100)"
          d="M131.97 196.157C161.646 196.157 179.529 181.626 179.529 157.66C179.529 139.543 166.77 126.428 147.823 124.351V123.597C161.743 121.332 172.666 108.405 172.666 93.9689C172.666 73.3992 156.427 60 131.68 60H76V196.157H131.97ZM97.6533 77.2674H126.46C142.12 77.2674 151.013 84.2497 151.013 96.8935C151.013 110.387 140.67 117.935 121.917 117.935H97.6533V77.2674V77.2674ZM97.6533 178.89V134.071H126.266C146.76 134.071 157.393 141.619 157.393 156.339C157.393 171.058 147.05 178.89 127.523 178.89H97.6533V178.89Z" />
        <path stroke="#fff" stroke-width="2"
          d="M131.97 196.157C161.646 196.157 179.529 181.626 179.529 157.66C179.529 139.543 166.77 126.428 147.823 124.351V123.597C161.743 121.332 172.666 108.405 172.666 93.9689C172.666 73.3992 156.427 60 131.68 60H76V196.157H131.97ZM97.6533 77.2674H126.46C142.12 77.2674 151.013 84.2497 151.013 96.8935C151.013 110.387 140.67 117.935 121.917 117.935H97.6533V77.2674V77.2674ZM97.6533 178.89V134.071H126.266C146.76 134.071 157.393 141.619 157.393 156.339C157.393 171.058 147.05 178.89 127.523 178.89H97.6533V178.89Z" />
      </g>
      <defs>
        <filter id="filter0_d_158_100" width="137.529" height="170.157" x="59" y="47" color-interpolation-filters="sRGB"
          filterUnits="userSpaceOnUse">
          <feFlood flood-opacity="0" result="BackgroundImageFix" />
          <feColorMatrix in="SourceAlpha" result="hardAlpha" type="matrix"
            values="0 0 0 0 0 0 0 0 0 0 0 0 0 0 0 0 0 0 127 0" />
          <feOffset dy="4" />
          <feGaussianBlur stdDeviation="8" />
          <feColorMatrix type="matrix" values="0 0 0 0 0 0 0 0 0 0 0 0 0 0 0 0 0 0 0.15 0" />
          <feBlend in2="BackgroundImageFix" mode="normal" result="effect1_dropShadow_158_100" />
          <feBlend in="SourceGraphic" in2="effect1_dropShadow_158_100" mode="normal" result="shape" />
        </filter>
        <linearGradient id="paint0_linear_158_100" x1="0" x2="256" y1="0" y2="256" gradientUnits="userSpaceOnUse">
          <stop stop-color="#9013FE" />
          <stop offset="1" stop-color="#6B11F4" />
        </linearGradient>
        <linearGradient id="paint1_linear_158_100" x1="85.793" x2="148.541" y1="68.962" y2="175.084"
          gradientUnits="userSpaceOnUse">
          <stop stop-color="#fff" />
          <stop offset="1" stop-color="#F1E5FC" />
        </linearGradient>
      </defs>
    </svg>
  </g>

  <g transform="translate(1800, 0)">
    <svg xmlns="http://www.w3.org/2000/svg" width="256" height="256" fill="none" viewBox="0 0 256 256">
      <rect width="256" height="256" fill="#242938" rx="60" />
      <path fill="#000"
        d="M17 120H237.641V193.109C237.641 210.289 223.605 223.445 205.285 223.445H49.3555C31.0312 223.445 17 210.289 17 193.109V120Z" />
      <path fill="#FFB13B" stroke="#000" stroke-width="28.695"
        d="M61.6328 108.908C54.8086 102.506 43.7422 102.506 36.918 108.908C30.0938 115.307 30.0938 125.682 36.918 132.084C43.7422 138.482 54.8086 138.482 61.6328 132.084H192.848C199.676 138.482 210.738 138.482 217.566 132.084C224.391 125.682 224.391 115.307 217.566 108.908C210.738 102.506 199.676 102.506 192.848 108.908H61.6328Z" />
      <path fill="#FFB13B" stroke="#000" stroke-width="28.725"
        d="M89.5898 68.8027C89.5898 59.7481 81.7656 52.4121 72.1133 52.4121C62.457 52.4121 54.6328 59.7481 54.6328 68.8027C54.6328 77.8535 62.457 85.1894 72.1133 85.1894L164.895 172.189C164.895 181.24 172.719 188.576 182.371 188.576C192.023 188.576 199.848 181.24 199.848 172.189C199.848 163.139 192.023 155.803 182.371 155.803L89.5898 68.8027Z" />
      <path fill="#FFB13B" stroke="#000" stroke-width="28.695"
        d="M139.602 58.9785C146.426 52.5762 146.426 42.2012 139.602 35.7988C132.773 29.4004 121.707 29.4004 114.883 35.7988C108.059 42.2012 108.059 52.5762 114.883 58.9785L114.883 182.014C108.059 188.412 108.059 198.791 114.883 205.189C121.707 211.592 132.773 211.592 139.602 205.189C146.426 198.791 146.426 188.412 139.602 182.014V58.9785Z" />
      <path fill="#FFB13B" stroke="#000" stroke-width="28.725"
        d="M182.371 85.1895C192.023 85.1895 199.848 77.8536 199.848 68.8028C199.848 59.7481 192.023 52.4122 182.371 52.4122C172.719 52.4122 164.895 59.7481 164.895 68.8028L72.1133 155.803C62.457 155.803 54.6328 163.139 54.6328 172.189C54.6328 181.24 62.457 188.576 72.1133 188.576C81.7656 188.576 89.5898 181.24 89.5898 172.189L182.371 85.1895Z" />
      <path fill="#FFB13B"
        d="M61.6328 108.908C54.8086 102.506 43.7422 102.506 36.918 108.908C30.0938 115.307 30.0938 125.682 36.918 132.084C43.7422 138.482 54.8086 138.482 61.6328 132.084H192.848C199.676 138.482 210.738 138.482 217.566 132.084C224.391 125.682 224.391 115.307 217.566 108.908C210.738 102.506 199.676 102.506 192.848 108.908H61.6328Z" />
      <path fill="#FFB13B"
        d="M89.5898 68.8027C89.5898 59.748 81.7656 52.4121 72.1133 52.4121C62.457 52.4121 54.6328 59.748 54.6328 68.8027C54.6328 77.8535 62.457 85.1895 72.1133 85.1895L164.895 172.189C164.895 181.24 172.719 188.576 182.371 188.576C192.023 188.576 199.848 181.24 199.848 172.189C199.848 163.139 192.023 155.803 182.371 155.803L89.5898 68.8027Z" />
      <path fill="#FFB13B"
        d="M139.602 58.9785C146.426 52.5762 146.426 42.2012 139.602 35.7988C132.773 29.4004 121.707 29.4004 114.883 35.7988C108.059 42.2012 108.059 52.5762 114.883 58.9785V182.014C108.059 188.412 108.059 198.791 114.883 205.189C121.707 211.592 132.773 211.592 139.602 205.189C146.426 198.791 146.426 188.412 139.602 182.014V58.9785Z" />
      <path fill="#FFB13B"
        d="M182.371 85.1895C192.023 85.1895 199.848 77.8535 199.848 68.8027C199.848 59.748 192.023 52.4121 182.371 52.4121C172.719 52.4121 164.895 59.748 164.895 68.8027L72.1133 155.803C62.457 155.803 54.6328 163.139 54.6328 172.189C54.6328 181.24 62.457 188.576 72.1133 188.576C81.7656 188.576 89.5898 181.24 89.5898 172.189L182.371 85.1895Z" />
      <path fill="#000" fill-opacity=".9"
        d="M17 121H237.641V194.109C237.641 211.289 223.605 224.445 205.285 224.445H49.3555C31.0312 224.445 17 211.289 17 194.109V121Z" />
      <path fill="#fff"
        d="M50.0273 172.135C44.8516 167.283 41.6484 160.584 41.6484 153.186C41.6484 138.381 54.457 126.377 70.2383 126.377C86.0273 126.377 98.832 138.381 98.832 153.186H82.0859C82.0859 147.053 76.7773 142.084 70.2383 142.084C63.6992 142.084 58.3984 147.053 58.3984 153.186C58.3984 156.248 59.7266 159.025 61.8594 161.025H61.8672C64.0117 163.045 65.7969 163.627 70.2383 164.291C78.1367 165.061 85.2813 167.291 90.457 172.143C95.6328 176.998 98.832 183.697 98.832 191.096C98.832 205.9 86.0273 217.908 70.2383 217.908C54.457 217.908 41.6484 205.9 41.6484 191.096H58.3984C58.3984 197.229 63.6992 202.205 70.2383 202.205C76.7773 202.205 82.0859 197.229 82.0859 191.096C82.0859 188.033 80.7617 185.264 78.625 183.256H78.6172C76.4727 181.244 73.3945 180.553 70.2383 179.998V179.994C62.582 178.893 55.2031 176.99 50.0273 172.135Z" />
      <path fill="#fff"
        d="M156.016 126.377L135.789 217.908H119.043L98.832 126.377H115.582L127.434 179.986L139.266 126.377H156.016Z" />
      <path fill="#fff"
        d="M184.613 164.291H213.199V191.096H213.207C213.207 205.904 200.402 217.912 184.613 217.912C168.82 217.912 156.023 205.904 156.023 191.096V153.186H156.016C156.016 138.381 168.82 126.381 184.613 126.381C200.395 126.381 213.199 138.381 213.199 153.186H196.453C196.453 147.061 191.145 142.084 184.613 142.084C178.07 142.084 172.77 147.061 172.77 153.186V191.096C172.77 197.229 178.07 202.201 184.613 202.201C191.145 202.201 196.445 197.229 196.453 191.104V180.002H184.613V164.291Z" />
    </svg>
  </g>

  <g transform="translate(2100, 0)">
    <svg xmlns="http://www.w3.org/2000/svg" width="256" height="256" fill="none" viewBox="0 0 256 256">
      <rect width="256" height="256" fill="#242938" rx="60" />
      <g clip-path="url(#clip0_4_180)">
        <path fill="#0ACF83"
          d="M94.3467 228C112.747 228 127.68 213.067 127.68 194.667V161.333H94.3467C75.9467 161.333 61.0133 176.267 61.0133 194.667C61.0133 213.067 75.9467 228 94.3467 228Z" />
        <path fill="#A259FF"
          d="M61.0133 128C61.0133 109.6 75.9467 94.6667 94.3467 94.6667H127.68V161.333H94.3467C75.9467 161.333 61.0133 146.4 61.0133 128Z" />
        <path fill="#F24E1E"
          d="M61.0133 61.3333C61.0133 42.9333 75.9467 28 94.3467 28H127.68V94.6667H94.3467C75.9467 94.6667 61.0133 79.7333 61.0133 61.3333Z" />
        <path fill="#FF7262"
          d="M127.68 28H161.013C179.413 28 194.347 42.9333 194.347 61.3333C194.347 79.7333 179.413 94.6667 161.013 94.6667H127.68V28Z" />
        <path fill="#1ABCFE"
          d="M194.347 128C194.347 146.4 179.413 161.333 161.013 161.333C142.613 161.333 127.68 146.4 127.68 128C127.68 109.6 142.613 94.6667 161.013 94.6667C179.413 94.6667 194.347 109.6 194.347 128Z" />
      </g>
      <defs>
        <clipPath id="clip0_4_180">
          <rect width="133.36" height="200" fill="#fff" transform="translate(61 28)" />
        </clipPath>
      </defs>
    </svg>
  </g>

  <g transform="translate(2400, 0)">
    <svg xmlns="http://www.w3.org/2000/svg" width="256" height="256" fill="none" viewBox="0 0 256 256">
      <rect width="256" height="256" fill="#001E36" rx="60" />
      <path fill="#31A8FF"
        d="M57.6001 178.04V68.2799C57.6001 67.5332 57.9201 67.1066 58.6668 67.1066C60.4801 67.1066 62.1868 67.1066 64.6401 66.9999C67.2001 66.8932 69.8668 66.8932 72.7468 66.7866C75.6268 66.6799 78.7201 66.6799 82.0268 66.5732C85.3334 66.4666 88.5334 66.4666 91.7334 66.4666C100.48 66.4666 107.733 67.5332 113.707 69.7732C119.04 71.5866 123.947 74.5732 128 78.5199C131.413 81.9332 134.08 86.0932 135.787 90.6799C137.387 95.1599 138.24 99.7466 138.24 104.547C138.24 113.72 136.107 121.293 131.84 127.267C127.573 133.24 121.6 137.72 114.667 140.28C107.413 142.947 99.4134 143.907 90.6668 143.907C88.1068 143.907 86.4001 143.907 85.3334 143.8C84.2668 143.693 82.7734 143.693 80.7468 143.693V177.933C80.8534 178.68 80.3201 179.32 79.5734 179.427C79.4668 179.427 79.3601 179.427 79.1468 179.427H58.8801C58.0268 179.427 57.6001 179 57.6001 178.04ZM80.8534 87.6932V123.533C82.3468 123.64 83.7334 123.747 85.0134 123.747H90.6668C94.8268 123.747 98.9868 123.107 102.933 121.827C106.347 120.867 109.333 118.84 111.68 116.173C113.92 113.507 114.987 109.88 114.987 105.187C115.093 101.88 114.24 98.5732 112.533 95.6932C110.72 92.9199 108.16 90.7866 105.067 89.6132C101.12 88.0132 96.8534 87.3732 92.4801 87.4799C89.7068 87.4799 87.2534 87.4799 85.2268 87.5866C83.0934 87.4799 81.6001 87.5866 80.8534 87.6932Z" />
      <path fill="#31A8FF"
        d="M204.8 117.027C201.6 115.32 198.187 114.147 194.56 113.4C190.613 112.547 186.667 112.013 182.613 112.013C180.48 111.907 178.24 112.227 176.213 112.76C174.827 113.08 173.653 113.827 172.907 114.893C172.373 115.747 172.053 116.813 172.053 117.773C172.053 118.733 172.48 119.693 173.12 120.547C174.08 121.72 175.36 122.68 176.747 123.427C179.2 124.707 181.76 125.88 184.32 126.947C190.08 128.867 195.627 131.533 200.747 134.733C204.267 136.973 207.147 139.96 209.173 143.587C210.88 147 211.733 150.733 211.627 154.573C211.733 159.587 210.24 164.6 207.467 168.76C204.48 173.027 200.32 176.333 195.52 178.253C190.293 180.493 183.893 181.667 176.213 181.667C171.307 181.667 166.507 181.24 161.707 180.28C157.973 179.64 154.24 178.467 150.827 176.867C150.08 176.44 149.547 175.693 149.653 174.84V156.28C149.653 155.96 149.76 155.533 150.08 155.32C150.4 155.107 150.72 155.213 151.04 155.427C155.2 157.88 159.573 159.587 164.267 160.653C168.32 161.72 172.587 162.253 176.853 162.253C180.907 162.253 183.787 161.72 185.707 160.76C187.413 160.013 188.587 158.2 188.587 156.28C188.587 154.787 187.733 153.4 186.027 152.013C184.32 150.627 180.8 149.027 175.573 147C170.133 145.08 165.12 142.52 160.427 139.32C157.12 136.973 154.347 133.88 152.32 130.253C150.613 126.84 149.76 123.107 149.867 119.373C149.867 114.787 151.147 110.413 153.493 106.467C156.16 102.2 160.107 98.7866 164.693 96.6532C169.707 94.0932 176 92.9199 183.573 92.9199C187.947 92.9199 192.427 93.2399 196.8 93.8799C200 94.3066 203.093 95.1599 205.973 96.3332C206.4 96.4399 206.827 96.8666 207.04 97.2932C207.147 97.7199 207.253 98.1466 207.253 98.5732V115.96C207.253 116.387 207.04 116.813 206.72 117.027C205.76 117.24 205.227 117.24 204.8 117.027Z" />
    </svg>
  </g>

  <g transform="translate(2700, 0)">
    <svg xmlns="http://www.w3.org/2000/svg" width="256" height="256" fill="none" viewBox="0 0 256 256">
      <rect width="256" height="256" fill="#300" rx="60" />
      <path fill="#FF9A00"
        d="M123.733 152.333H84.053L75.9464 177.4C75.733 178.36 74.8797 179 73.9197 178.893H53.8664C52.693 178.893 52.373 178.253 52.693 176.973L87.0397 78.0935C87.3597 77.0268 87.6797 75.8535 88.1064 74.5735C88.533 72.3335 88.7464 69.9868 88.7464 67.6401C88.6397 67.1068 89.0664 66.5735 89.5997 66.4668H89.9197H117.226C118.08 66.4668 118.506 66.7868 118.613 67.3201L157.546 177.187C157.866 178.36 157.546 178.893 156.48 178.893H134.186C133.44 179 132.693 178.467 132.48 177.72L123.733 152.333V152.333ZM90.2397 130.68H117.333C116.693 128.44 115.84 125.773 114.88 123C113.92 120.12 112.96 117.027 112 113.827C110.933 110.52 109.973 107.32 108.906 104.013C107.84 100.707 106.88 97.6135 106.026 94.5201C105.173 91.5335 104.426 88.7601 103.68 86.2001H103.466C102.506 90.7868 101.333 95.3735 99.8397 99.9601C98.2397 105.08 96.6397 110.413 94.933 115.747C93.4397 121.187 91.8397 126.2 90.2397 130.68V130.68Z" />
      <path fill="#FF9A00"
        d="M181.333 85.1334C177.813 85.2401 174.4 83.8534 171.84 81.4001C169.387 78.7334 168.107 75.2134 168.213 71.5868C168.107 67.9601 169.493 64.5468 172.053 62.0934C174.613 59.6401 178.027 58.3601 181.547 58.3601C185.707 58.3601 188.907 59.6401 191.253 62.0934C193.6 64.6534 194.88 68.0668 194.773 71.5868C194.88 75.2134 193.6 78.7334 191.04 81.4001C188.587 83.9601 184.96 85.3468 181.333 85.1334ZM169.387 177.72V95.5868C169.387 94.5201 169.813 94.0934 170.773 94.0934H191.893C192.853 94.0934 193.28 94.6268 193.28 95.5868V177.72C193.28 178.893 192.853 179.427 191.893 179.427H170.987C169.92 179.427 169.387 178.787 169.387 177.72V177.72Z" />
    </svg>
  </g>

  <g transform="translate(3000, 0)">
    <svg xmlns="http://www.w3.org/2000/svg" width="256" height="256" fill="none" viewBox="0 0 256 256">
      <rect width="256" height="256" fill="#00005B" rx="60" />
      <path fill="#99F"
        d="M54 182.68V72.8133C54 72.0667 54.32 71.64 55.0667 71.64C56.88 71.64 58.5867 71.64 61.04 71.5333C63.6 71.4267 66.2667 71.4267 69.1467 71.32C72.0267 71.2133 75.12 71.2133 78.4267 71.1067C81.7333 71 84.9333 71 88.1333 71C96.88 71 104.133 72.0667 110.107 74.3067C115.44 76.12 120.347 79.1067 124.4 83.0533C127.813 86.4667 130.48 90.6267 132.187 95.2133C133.787 99.6933 134.64 104.28 134.64 109.08C134.64 118.253 132.507 125.827 128.24 131.8C123.973 137.773 118 142.253 111.067 144.813C103.813 147.48 95.8133 148.44 87.0667 148.44C84.5067 148.44 82.8 148.44 81.7333 148.333C80.6667 148.227 79.1733 148.227 77.1467 148.227V182.467C77.2533 183.213 76.72 183.853 75.9733 183.96H75.5467H55.28C54.4267 183.96 54 183.533 54 182.573V182.68ZM77.2533 92.3333V128.173C78.7467 128.28 80.1333 128.387 81.4133 128.387H87.0667C91.2267 128.387 95.3867 127.747 99.3333 126.467C102.747 125.507 105.733 123.48 108.08 120.813C110.32 118.147 111.387 114.52 111.387 109.827C111.493 106.52 110.64 103.213 108.933 100.333C107.12 97.56 104.56 95.4267 101.467 94.2533C97.52 92.6533 93.2533 92.0133 88.88 92.12C86.1067 92.12 83.6533 92.12 81.6267 92.2267C79.4933 92.12 78 92.2267 77.2533 92.3333V92.3333Z" />
      <path fill="#99F"
        d="M150 98.6267H168.667C169.734 98.6267 170.587 99.3733 170.907 100.333C171.227 101.187 171.44 102.04 171.547 103C171.76 104.067 171.974 105.24 172.08 106.307C172.187 107.48 172.294 108.76 172.294 110.147C175.494 106.413 179.334 103.32 183.707 100.973C188.614 98.2 194.267 96.8133 199.92 96.8133C200.667 96.7067 201.307 97.24 201.414 97.9867V98.4133V119.213C201.414 120.067 200.88 120.387 199.707 120.387C195.867 120.28 191.92 120.6 188.187 121.453C185.094 122.093 182.107 123.053 179.227 124.333C177.2 125.293 175.28 126.573 173.787 128.28V182.68C173.787 183.747 173.36 184.173 172.4 184.173H151.387C150.534 184.28 149.787 183.747 149.68 182.893V182.467V123.373C149.68 120.813 149.68 118.147 149.574 115.373C149.467 112.6 149.467 109.827 149.36 107.053C149.36 104.6 149.147 102.253 148.934 99.8C148.827 99.2667 149.147 98.7333 149.68 98.6267C149.68 98.52 149.894 98.52 150 98.6267V98.6267Z" />
    </svg>
  </g>

  <g transform="translate(3300, 0)">
    <svg xmlns="http://www.w3.org/2000/svg" width="256" height="256" fill="none" viewBox="0 0 256 256">
      <rect width="256" height="256" fill="#00005B" rx="60" />
      <path fill="#99F"
        d="M105.157 156.12H65.4769L57.3702 181.293C57.1569 182.253 56.3035 182.893 55.3435 182.787H35.2902C34.1169 182.787 33.7969 182.147 34.1169 180.867L68.4635 82.4133C68.7835 81.3467 69.1035 80.3867 69.5302 79.1067C69.9569 76.8667 70.1702 74.52 70.1702 72.1733C70.0635 71.64 70.4902 71.1067 71.0235 71H71.3435H98.6502C99.3969 71 99.9302 71.32 100.037 71.8533L138.97 180.653C139.29 181.827 138.97 182.36 137.904 182.36H115.61C114.864 182.467 114.117 181.933 113.904 181.187L105.157 155.587V156.12ZM71.6635 134.893H98.7568C98.1168 132.653 97.2635 129.987 96.3035 127.213C95.3435 124.333 94.3835 121.24 93.4235 118.04C92.3569 114.733 91.3968 111.533 90.3302 108.227C89.2635 104.92 88.3035 101.827 87.4502 98.7333C86.5969 95.7467 85.8502 92.9733 85.1035 90.4133H84.8902C83.9302 95 82.7569 99.5867 81.2635 104.173C79.6635 109.293 78.0635 114.627 76.3569 119.96C74.9702 125.4 73.2635 130.413 71.6635 134.893V134.893Z" />
      <path fill="#99F"
        d="M201.797 146.52H167.984C168.41 149.827 169.477 153.133 171.29 156.013C173.21 158.893 175.877 161.133 179.077 162.413C183.344 164.227 188.037 165.187 192.73 165.08C196.464 164.973 200.197 164.653 203.824 163.907C207.13 163.48 210.33 162.627 213.317 161.453C213.85 161.027 214.17 161.24 214.17 162.307V178.627C214.17 179.053 214.064 179.48 213.957 179.907C213.744 180.227 213.53 180.44 213.21 180.653C209.797 182.147 206.277 183.213 202.544 183.853C197.53 184.813 192.517 185.24 187.397 185.133C179.29 185.133 172.464 183.853 166.917 181.4C161.69 179.16 157.104 175.64 153.477 171.267C150.064 167.107 147.61 162.413 146.117 157.293C144.624 152.28 143.877 147.053 143.877 141.72C143.877 135.96 144.73 130.307 146.544 124.76C148.25 119.427 150.917 114.52 154.544 110.147C158.064 105.88 162.437 102.467 167.45 100.013C172.464 97.56 178.437 96.7067 185.264 96.7067C190.917 96.6 196.57 97.6667 201.797 100.013C206.17 101.933 210.01 104.813 212.997 108.547C215.77 112.173 218.01 116.227 219.397 120.707C220.784 124.973 221.424 129.347 221.424 133.72C221.424 136.28 221.317 138.52 221.21 140.547C220.997 142.573 220.89 144.067 220.784 145.027C220.677 145.773 220.037 146.413 219.29 146.413C218.65 146.413 217.477 146.52 215.77 146.627C214.064 146.84 212.037 146.947 209.584 146.947C207.13 146.947 204.57 146.52 201.797 146.52V146.52ZM167.984 130.947H190.49C193.264 130.947 195.29 130.947 196.57 130.84C197.424 130.733 198.277 130.52 199.024 129.987V128.92C199.024 127.533 198.81 126.253 198.384 124.973C196.464 119 190.81 114.947 184.517 115.16C178.65 114.84 173.104 117.933 170.33 123.267C169.05 125.72 168.304 128.28 167.984 130.947Z" />
    </svg>
  </g>

  <g transform="translate(3600, 0)">
    <svg xmlns="http://www.w3.org/2000/svg" width="256" height="256" fill="none" viewBox="0 0 256 256">
      <rect width="256" height="256" fill="#242938" rx="60" />
      <path fill="#fff"
        d="M105.552 137.283C106.327 123.403 113.091 111.174 123.296 102.505C133.304 93.9907 146.775 88.7866 161.473 88.7866C176.156 88.7866 189.627 93.9907 199.642 102.505C209.84 111.174 216.604 123.403 217.386 137.268C218.16 151.53 212.455 164.779 202.447 174.6C192.242 184.59 177.727 190.859 161.473 190.859C145.219 190.859 130.675 184.59 120.477 174.6C110.461 164.779 104.771 151.53 105.552 137.283V137.283Z" />
      <path fill="#265787"
        d="M132.782 138.529C133.179 131.407 136.65 125.132 141.886 120.684C147.021 116.315 153.933 113.645 161.475 113.645C169.009 113.645 175.921 116.315 181.059 120.684C186.292 125.132 189.763 131.407 190.164 138.521C190.561 145.839 187.634 152.637 182.499 157.677C177.262 162.803 169.815 166.019 161.475 166.019C153.135 166.019 145.672 162.803 140.439 157.677C135.301 152.637 132.381 145.839 132.782 138.529V138.529Z" />
      <path fill="#EA7600"
        d="M87.0902 152.92C87.139 155.707 88.0235 161.123 89.3504 165.353C92.1392 174.305 96.8694 182.587 103.451 189.886C110.206 197.389 118.523 203.415 128.13 207.693C138.228 212.186 149.169 214.476 160.534 214.457C171.88 214.442 182.821 212.107 192.919 207.58C202.526 203.26 210.836 197.208 217.579 189.702C224.157 182.372 228.88 174.075 231.676 165.123C233.082 160.599 233.97 156.008 234.326 151.402C234.675 146.864 234.529 142.318 233.888 137.776C232.636 128.925 229.588 120.62 224.895 113.05C220.604 106.094 215.071 100.004 208.493 94.8777L208.508 94.8663L142.122 43.6486C142.062 43.6034 142.014 43.5545 141.95 43.5131C137.594 40.1535 130.27 40.1648 125.48 43.5319C120.637 46.9366 120.083 52.5672 124.393 56.1188L124.374 56.1376L152.063 78.7617L67.6704 78.8521H67.558C60.5825 78.8597 53.8768 83.4583 52.5499 89.2697C51.1855 95.1903 55.9233 100.101 63.1762 100.128L63.165 100.154L105.94 100.071L29.6104 158.942C29.513 159.014 29.408 159.089 29.3181 159.161C22.1176 164.701 19.79 173.913 24.3254 179.743C28.9283 185.672 38.715 185.683 45.9904 179.777L87.6487 145.519C87.6487 145.519 87.0415 150.144 87.0902 152.92V152.92ZM194.137 168.407C185.554 177.194 173.537 182.177 160.534 182.203C147.512 182.226 135.495 177.288 126.912 168.516C122.718 164.241 119.636 159.323 117.736 154.084C115.873 148.935 115.15 143.47 115.63 137.956C116.083 132.567 117.68 127.426 120.229 122.775C122.733 118.202 126.181 114.071 130.439 110.576C138.783 103.744 149.405 100.045 160.515 100.03C171.636 100.015 182.251 103.679 190.603 110.489C194.853 113.969 198.298 118.086 200.802 122.65C203.362 127.298 204.947 132.42 205.419 137.825C205.892 143.331 205.168 148.788 203.305 153.941C201.401 159.195 198.331 164.113 194.137 168.407V168.407Z" />
    </svg>
  </g>

</svg>